<svg width="55" height="55" viewBox="0 0 55 55" fill="none" xmlns="http://www.w3.org/2000/svg">
<circle cx="27.5" cy="27.5" r="27" fill="#CC4533" stroke="white"/>
<circle cx="27.5" cy="27.4999" r="24.6552" fill="white"/>
<circle cx="27.5" cy="27.5001" r="22.2586" fill="#CC4533" stroke="#CC4533"/>
<path d="M21.9261 20.628L24.0809 22.7828L22.5599 24.302L20.407 22.1491C20.2802 22.0223 20.1535 22.0223 19.9 22.0223C19.7732 22.0223 19.6465 22.0223 19.5197 22.1491L11.4151 30.2537C11.2883 30.3804 11.1616 30.6339 11.1616 30.7607C11.1616 31.0142 11.2883 31.141 11.4151 31.2677L19.5197 39.3723C19.6465 39.4991 19.7732 39.4991 19.9 39.4991C20.1535 39.4991 20.2802 39.4991 20.407 39.3723L28.5116 31.2677C28.6384 31.141 28.7651 31.0142 28.7651 30.7607C28.7651 30.6339 28.6384 30.3804 28.5116 30.2537L25.9785 27.7205L27.4995 26.2014L30.0327 28.7345C30.6664 29.3683 30.9199 30.0002 30.9199 30.7607C30.9199 31.5212 30.6664 32.2817 30.0327 32.7869L21.9261 40.8934C21.421 41.4004 20.6605 41.7788 19.9 41.7788C19.2662 41.7788 18.5076 41.4004 17.8738 40.8934L9.89405 32.7869C9.26217 32.2817 9.00867 31.5212 9.00867 30.7607C9.00867 30.0002 9.26217 29.3683 9.89405 28.7345L17.8738 20.628C18.5076 20.1229 19.2662 19.8694 19.9 19.8694C20.6605 19.8694 21.421 20.1229 21.9261 20.628Z" fill="white"/>
<path d="M34.4648 10.2432L40.5452 16.1968C41.0522 16.7019 41.3057 17.4624 41.3057 18.0962C41.3057 18.73 41.0522 19.3637 40.5452 19.8689L39.533 20.8829L38.012 19.3637L39.026 18.3497C39.1528 18.223 39.1528 18.223 39.1528 18.0962C39.1528 17.9694 39.1528 17.8427 39.026 17.7159L32.9457 11.7623C32.9457 11.6356 32.8189 11.6356 32.6922 11.6356C32.5654 11.6356 32.4386 11.6356 32.4386 11.7623L26.3583 17.7159C26.3583 17.8427 26.2315 17.9694 26.2315 18.0962C26.2315 18.223 26.3583 18.223 26.3583 18.3497L32.4386 24.4301C32.4386 24.4301 32.5654 24.5568 32.6922 24.5568C32.8189 24.5568 32.9457 24.4301 32.9457 24.4301L34.4648 22.909L35.9858 24.4301L34.4648 25.9492C33.9597 26.4562 33.3259 26.7097 32.6922 26.7097C32.0584 26.7097 31.4246 26.4562 30.9195 25.9492L24.8391 19.8689C24.3321 19.3637 24.0786 18.73 24.0786 18.0962C24.0786 17.4624 24.3321 16.7019 24.8391 16.1968L30.9195 10.2432C31.4246 9.73617 32.0584 9.48267 32.6922 9.48267C33.3259 9.48267 33.9597 9.73617 34.4648 10.2432Z" fill="white"/>
<path d="M34.5911 18.0931L45.2308 28.7328C45.7378 29.2399 45.9913 29.9985 45.9913 30.6322C45.9913 31.3928 45.7378 32.1533 45.2308 32.6584L34.5911 43.2981C34.0841 43.8051 33.3254 44.0586 32.5649 44.0586C31.9311 44.0586 31.1725 43.8051 30.6655 43.2981L25.9775 38.7388L27.4986 37.091L32.1847 41.7771C32.3114 41.9038 32.4382 41.9038 32.5649 41.9038C32.8184 41.9038 32.9452 41.9038 33.0719 41.7771L43.7097 31.1393C43.8365 31.0125 43.8365 30.8857 43.8365 30.6322C43.8365 30.5055 43.8365 30.3787 43.7097 30.252L33.0719 19.6142C32.9452 19.4874 32.8184 19.4874 32.5649 19.4874C32.4382 19.4874 32.3114 19.4874 32.1847 19.6142L30.6655 21.0066L29.1445 19.4874L30.6655 18.0931C31.1725 17.5861 31.9311 17.2078 32.5649 17.2078C33.3254 17.2078 34.0841 17.5861 34.5911 18.0931ZM22.6857 35.4451L20.0258 32.6584C19.5188 32.1533 19.1385 31.3928 19.1385 30.6322C19.1385 29.9985 19.5188 29.2399 20.0258 28.7328L25.8527 22.7792L27.4986 24.2984L21.5469 30.252C21.4201 30.3787 21.4201 30.5055 21.4201 30.6322C21.4201 30.8857 21.4201 31.0125 21.5469 31.1393L24.2068 33.9259L22.6857 35.4451Z" fill="white"/>
</svg>
